<?xml version="1.0" encoding="UTF-8" standalone="no"?>
<!-- Created with Inkscape (http://www.inkscape.org/) -->

<svg
   version="1.1"
   id="svg1"
   width="1024"
   height="1024"
   viewBox="0 0 1024 1024"
   sodipodi:docname="sonrize.ai"
   xmlns:inkscape="http://www.inkscape.org/namespaces/inkscape"
   xmlns:sodipodi="http://sodipodi.sourceforge.net/DTD/sodipodi-0.dtd"
   xmlns="http://www.w3.org/2000/svg"
   xmlns:svg="http://www.w3.org/2000/svg">
  <defs
     id="defs1">
    <clipPath
       clipPathUnits="userSpaceOnUse"
       id="clipPath2">
      <path
         d="M 0,768 H 768 V 0 H 0 Z"
         transform="translate(-249.48471,-466.39651)"
         id="path2" />
    </clipPath>
    <clipPath
       clipPathUnits="userSpaceOnUse"
       id="clipPath4">
      <path
         d="M 0,768 H 768 V 0 H 0 Z"
         transform="translate(-478.02861,-381.87981)"
         id="path4" />
    </clipPath>
    <clipPath
       clipPathUnits="userSpaceOnUse"
       id="clipPath6">
      <path
         d="M 0,768 H 768 V 0 H 0 Z"
         transform="translate(-319.71551,-466.40841)"
         id="path6" />
    </clipPath>
    <clipPath
       clipPathUnits="userSpaceOnUse"
       id="clipPath8">
      <path
         d="M 0,768 H 768 V 0 H 0 Z"
         transform="translate(-366.44001,-596.78002)"
         id="path8" />
    </clipPath>
    <clipPath
       clipPathUnits="userSpaceOnUse"
       id="clipPath10">
      <path
         d="M 0,768 H 768 V 0 H 0 Z"
         transform="translate(-262.86001,-508.43002)"
         id="path10" />
    </clipPath>
    <clipPath
       clipPathUnits="userSpaceOnUse"
       id="clipPath12">
      <path
         d="M 0,768 H 768 V 0 H 0 Z"
         transform="translate(-334.52001,-585.96001)"
         id="path12" />
    </clipPath>
    <clipPath
       clipPathUnits="userSpaceOnUse"
       id="clipPath14">
      <path
         d="M 0,768 H 768 V 0 H 0 Z"
         transform="translate(-304.13001,-566.34001)"
         id="path14" />
    </clipPath>
    <clipPath
       clipPathUnits="userSpaceOnUse"
       id="clipPath16">
      <path
         d="M 0,768 H 768 V 0 H 0 Z"
         transform="translate(-440.74001,-657.63002)"
         id="path16" />
    </clipPath>
    <clipPath
       clipPathUnits="userSpaceOnUse"
       id="clipPath18">
      <path
         d="M 0,768 H 768 V 0 H 0 Z"
         transform="translate(-402.18001,-599.69002)"
         id="path18" />
    </clipPath>
    <clipPath
       clipPathUnits="userSpaceOnUse"
       id="clipPath20">
      <path
         d="M 0,768 H 768 V 0 H 0 Z"
         transform="translate(-280.19001,-540.48001)"
         id="path20" />
    </clipPath>
    <clipPath
       clipPathUnits="userSpaceOnUse"
       id="clipPath22">
      <path
         d="M 0,768 H 768 V 0 H 0 Z"
         transform="translate(-170.6392,-208.44831)"
         id="path22" />
    </clipPath>
    <clipPath
       clipPathUnits="userSpaceOnUse"
       id="clipPath24">
      <path
         d="M 0,768 H 768 V 0 H 0 Z"
         transform="translate(-253.9351,-225.3379)"
         id="path24" />
    </clipPath>
    <clipPath
       clipPathUnits="userSpaceOnUse"
       id="clipPath26">
      <path
         d="M 0,768 H 768 V 0 H 0 Z"
         transform="translate(-346.95801,-279.8467)"
         id="path26" />
    </clipPath>
    <clipPath
       clipPathUnits="userSpaceOnUse"
       id="clipPath28">
      <path
         d="M 0,768 H 768 V 0 H 0 Z"
         transform="translate(-393.53321,-209.98341)"
         id="path28" />
    </clipPath>
    <clipPath
       clipPathUnits="userSpaceOnUse"
       id="clipPath30">
      <path
         d="M 0,768 H 768 V 0 H 0 Z"
         id="path30" />
    </clipPath>
    <clipPath
       clipPathUnits="userSpaceOnUse"
       id="clipPath32">
      <path
         d="M 0,768 H 768 V 0 H 0 Z"
         transform="translate(-482.58791,-209.98341)"
         id="path32" />
    </clipPath>
    <clipPath
       clipPathUnits="userSpaceOnUse"
       id="clipPath34">
      <path
         d="M 0,768 H 768 V 0 H 0 Z"
         transform="translate(-590.83792,-208.96)"
         id="path34" />
    </clipPath>
    <clipPath
       clipPathUnits="userSpaceOnUse"
       id="clipPath36">
      <path
         d="M 0,768 H 768 V 0 H 0 Z"
         transform="translate(-201.2734,-148.7452)"
         id="path36" />
    </clipPath>
    <clipPath
       clipPathUnits="userSpaceOnUse"
       id="clipPath38">
      <path
         d="M 0,768 H 768 V 0 H 0 Z"
         transform="translate(-239.79051,-154.752)"
         id="path38" />
    </clipPath>
    <clipPath
       clipPathUnits="userSpaceOnUse"
       id="clipPath40">
      <path
         d="M 0,768 H 768 V 0 H 0 Z"
         transform="translate(-266.8735,-149.2725)"
         id="path40" />
    </clipPath>
    <clipPath
       clipPathUnits="userSpaceOnUse"
       id="clipPath42">
      <path
         d="M 0,768 H 768 V 0 H 0 Z"
         transform="translate(-320.98781,-148.7452)"
         id="path42" />
    </clipPath>
    <clipPath
       clipPathUnits="userSpaceOnUse"
       id="clipPath44">
      <path
         d="M 0,768 H 768 V 0 H 0 Z"
         transform="translate(-358.50341,-148.7452)"
         id="path44" />
    </clipPath>
    <clipPath
       clipPathUnits="userSpaceOnUse"
       id="clipPath46">
      <path
         d="M 0,768 H 768 V 0 H 0 Z"
         transform="translate(-384.26951,-149.2725)"
         id="path46" />
    </clipPath>
    <clipPath
       clipPathUnits="userSpaceOnUse"
       id="clipPath48">
      <path
         d="M 0,768 H 768 V 0 H 0 Z"
         transform="translate(-423.31351,-149.2725)"
         id="path48" />
    </clipPath>
    <clipPath
       clipPathUnits="userSpaceOnUse"
       id="clipPath50">
      <path
         d="M 0,768 H 768 V 0 H 0 Z"
         transform="translate(-449.97461,-157.80861)"
         id="path50" />
    </clipPath>
    <clipPath
       clipPathUnits="userSpaceOnUse"
       id="clipPath52">
      <path
         d="M 0,768 H 768 V 0 H 0 Z"
         transform="translate(-487.01661,-149.2725)"
         id="path52" />
    </clipPath>
    <clipPath
       clipPathUnits="userSpaceOnUse"
       id="clipPath54">
      <path
         d="M 0,768 H 768 V 0 H 0 Z"
         transform="translate(-546.76861,-148.7452)"
         id="path54" />
    </clipPath>
    <clipPath
       clipPathUnits="userSpaceOnUse"
       id="clipPath56">
      <path
         d="M 0,768 H 768 V 0 H 0 Z"
         transform="translate(-577.06451,-149.2725)"
         id="path56" />
    </clipPath>
  </defs>
  <sodipodi:namedview
     id="namedview1"
     pagecolor="#ffffff"
     bordercolor="#000000"
     borderopacity="0.25"
     inkscape:showpageshadow="2"
     inkscape:pageopacity="0.0"
     inkscape:pagecheckerboard="0"
     inkscape:deskcolor="#d1d1d1">
    <inkscape:page
       x="0"
       y="0"
       inkscape:label="1"
       id="page1"
       width="1024"
       height="1024"
       margin="198.32666 191.86 139.02667 178.72533"
       bleed="0" />
  </sodipodi:namedview>
  <g
     id="layer-MC0"
     inkscape:groupmode="layer"
     inkscape:label="Layer 1">
    <path
       id="path1"
       d="m 0,0 c -6.63,-10.563 -5.831,-25.623 8.901,-27.393 48.548,-5.834 122.652,32.584 160.373,61.992 29.846,23.269 56.479,53.664 65.227,91.58 l -20.234,3.587 47.632,46.41 24.969,-63.074 -20.216,4.758 c -0.757,-0.558 -5.687,-15.82 -6.344,-17.597 C 248.764,69.052 204.185,25.901 176.422,3.656 146.5,-20.318 78.204,-58.76 62.433,-91.585 c -6.207,-12.92 -4.452,-20.582 0.649,-33.384 -24.116,10.644 -47.492,35.393 -25.622,60.743 19.577,22.691 50.681,30.811 74.624,46.512 1.735,1.137 3.432,3.366 4.57,4.62 L 85.615,-26.859 c -1.391,-0.605 -2.763,-1.257 -4.079,-2.009 -20.086,-11.488 -67.711,-22.892 -85.03,-17.493 -0.891,0.278 -9.117,2.837 -13.57,10.94 -2.356,4.287 -0.983,8.058 0.454,12.605 2.514,7.952 7.264,15.011 13.665,20.357 z"
       style="fill:#d9a636;fill-opacity:1;fill-rule:nonzero;stroke:none"
       transform="matrix(1.3333333,0,0,-1.3333333,332.64627,402.138)"
       clip-path="url(#clipPath2)" />
    <path
       id="path3"
       d="m 0,0 -26.101,8.314 c -5.094,-15.238 -14.898,-28.212 -25.08,-40.428 15.605,4.918 33.217,13.08 45.249,24.374 C -4.613,-6.503 1.105,-1.505 0,0 m -90.463,14.298 c -14.432,0.609 -28.846,-0.869 -42.869,-4.18 6.948,-19.617 22.515,-40.58 42.869,-47.005 z m 10.713,1.19 v -52.375 c 21.084,6.22 35.55,27.16 42.869,47.005 -13.979,4.079 -28.536,3.666 -42.869,5.37 M 32.143,73.816 H -11.9 C -11.393,54.658 -16.393,36.152 -21.394,17.918 -11.217,15.736 -1.657,11.593 7.66,7.08 22.207,26.204 31.073,49.635 32.143,73.816 m 0,10.713 c -0.208,21.671 -7.591,40.48 -17.643,59.217 -0.996,2.292 4.532,10.638 5.72,9.822 C 62.732,89.754 43.485,3.365 -24.771,-32.944 c -36.02,-19.161 -79.022,-20.144 -115.939,-2.409 -3.711,1.782 -21.312,11.983 -22.164,14.775 -1.039,3.406 0.873,6.595 1.002,9.88 l 2.77,-0.191 c 11.977,-9.258 25.274,-17.395 40.07,-21.225 -7.957,9.486 -14.759,18.894 -20.883,29.695 -1.336,2.355 -1.766,5.911 -3.049,7.708 -1.277,1.787 -4.989,1.775 -3.423,4.227 0.058,0.091 1.403,-0.114 1.881,0.449 11.259,13.261 18.541,13.197 35.608,15.031 5.916,0.635 17.743,-2.591 18.498,4.122 1.441,12.797 -5.494,24.853 10.65,30.413 V 26.202 l 47.536,-5.906 c 5.479,17.295 8.952,35.311 9.601,53.52 h -35.711 c 0.362,3.025 10.449,11.316 12.783,11.722 3.187,0.555 21.334,-2.611 22.934,-1.016 1.679,9.715 -5.002,18.076 2.805,25.763 6.009,5.916 5.664,1.832 6.55,-3.897 0.852,-5.51 0.382,-15.777 1.535,-19.954 0.38,-1.38 2.869,-1.905 3.983,-1.905 z"
       style="fill:#5d904c;fill-opacity:1;fill-rule:nonzero;stroke:none"
       transform="matrix(1.3333333,0,0,-1.3333333,637.37147,514.82693)"
       clip-path="url(#clipPath4)" />
    <path
       id="path5"
       d="M 0,0 C 0.779,18.83 3.864,37.783 10.543,55.386 L -17.313,66.667 C -18.469,66.651 -24.996,58.13 -26.02,56.374 -35.05,40.895 -41.084,17.864 -41.662,0 Z M 39.281,105.929 C 19.99,101.437 2.925,89.616 -10.69,75.587 c -0.006,-2.182 24.392,-10.402 26.102,-8.868 4.136,15.032 14.105,27.427 23.869,39.21 m 28.569,4.773 C 46.274,105.868 32.597,83.573 24.995,64.294 c 5.517,-1.659 11.327,-1.779 16.974,-2.683 7.165,-1.147 10.928,-2.197 16.915,-2.078 2.991,0.06 5.989,-0.033 8.966,-0.016 z m -109.512,-121.415 1.194,-11.902 c -1.899,0.308 -10.259,-0.459 -10.706,0.009 -0.35,0.366 -1.154,8.513 -1.25,10.06 -5.634,90.651 81.996,157.86 168.179,127.706 4.698,-1.644 29.401,-13.701 30.535,-17.164 0.568,-1.736 -1.485,-9.199 -3.871,-8.578 -4.461,1.159 -16.669,10.099 -22.958,12.783 -2.118,0.905 -10.775,4.908 -12.329,3.728 5.387,-7.097 11.308,-13.968 15.678,-21.805 4.94,-8.858 9.677,-14.842 -2.568,-19.842 -6.716,19.214 -21.462,40.671 -41.679,46.42 V 59.517 L 120.219,62.499 107.484,50.237 78.557,48.81 C 77.74,47.993 79.392,30.365 78.585,27.026 78.415,26.32 69.796,20.624 67.85,21.426 V 48.804 C 51.792,47.758 36.156,51.781 20.32,53.476 15.67,36.457 10.996,19.029 11.897,1.184 13.145,-0.063 26.965,3.631 28.567,-1.178 L 2.37,-11.431 c -1.196,-0.763 -2.513,0.718 -2.965,0.718 z"
       style="fill:#5d904c;fill-opacity:1;fill-rule:nonzero;stroke:none"
       transform="matrix(1.3333333,0,0,-1.3333333,426.28733,402.12213)"
       clip-path="url(#clipPath6)" />
    <path
       id="path7"
       d="m 0,0 c -8.78,-1.84 -17.26,-4.5 -25.36,-7.88 l -5.07,67.54 z"
       style="fill:#5d904c;fill-opacity:1;fill-rule:nonzero;stroke:none"
       transform="matrix(1.3333333,0,0,-1.3333333,488.58667,228.29333)"
       clip-path="url(#clipPath8)" />
    <path
       id="path9"
       d="M 0,0 C -3.17,-8.23 -5.59,-16.83 -7.18,-25.72 L -68.2,2.08 Z"
       style="fill:#5d904c;fill-opacity:1;fill-rule:nonzero;stroke:none"
       transform="matrix(1.3333333,0,0,-1.3333333,350.48,346.09333)"
       clip-path="url(#clipPath10)" />
    <path
       id="path11"
       d="M 0,0 C -8.17,-3.9 -15.9,-8.56 -23.12,-13.89 L -47.29,50.68 -30.17,32.87 C -20.25,21.85 -10.22,10.79 0,0"
       style="fill:#5d904c;fill-opacity:1;fill-rule:nonzero;stroke:none"
       transform="matrix(1.3333333,0,0,-1.3333333,446.02667,242.72)"
       clip-path="url(#clipPath12)" />
    <path
       id="path13"
       d="m 0,0 c -6.89,-5.8 -13.22,-12.25 -18.9,-19.25 l -37.21,58.83 20.4,-13.93 C -23.92,17.02 -12.02,8.37 0,0"
       style="fill:#5d904c;fill-opacity:1;fill-rule:nonzero;stroke:none"
       transform="matrix(1.3333333,0,0,-1.3333333,405.50667,268.88)"
       clip-path="url(#clipPath14)" />
    <path
       id="path15"
       d="m 0,0 -4.39,-63.63 c -8.27,2.45 -16.85,4.16 -25.66,5.07 z"
       style="fill:#5d904c;fill-opacity:1;fill-rule:nonzero;stroke:none"
       transform="matrix(1.3333333,0,0,-1.3333333,587.65333,147.16)"
       clip-path="url(#clipPath16)" />
    <path
       id="path17"
       d="m 0,0 c -2.09,0.09 -4.18,0.14 -6.29,0.14 -6.91,0 -13.7,-0.49 -20.34,-1.44 l 14.62,65.34 z"
       style="fill:#5d904c;fill-opacity:1;fill-rule:nonzero;stroke:none"
       transform="matrix(1.3333333,0,0,-1.3333333,536.24,224.41333)"
       clip-path="url(#clipPath18)" />
    <path
       id="path19"
       d="M 0,0 C -5.3,-7.35 -9.91,-15.23 -13.74,-23.54 L -63.03,18.34 Z"
       style="fill:#5d904c;fill-opacity:1;fill-rule:nonzero;stroke:none"
       transform="matrix(1.3333333,0,0,-1.3333333,373.58667,303.36)"
       clip-path="url(#clipPath20)" />
    <path
       id="path21"
       d="m 0,0 c -7.166,0 -14.055,0.959 -20.665,2.879 -6.611,1.919 -11.921,4.414 -15.93,7.485 l 7.037,15.611 c 3.753,-2.732 8.273,-4.971 13.564,-6.718 5.288,-1.749 10.62,-2.623 15.994,-2.623 4.094,0 7.399,0.426 9.917,1.279 2.515,0.852 4.37,1.983 5.565,3.391 1.194,1.408 1.792,3.049 1.792,4.926 0,2.387 -0.94,4.287 -2.815,5.694 -1.877,1.408 -4.373,2.559 -7.485,3.455 -3.116,0.895 -6.506,1.747 -10.173,2.559 -3.669,0.81 -7.357,1.791 -11.068,2.943 -3.711,1.151 -7.124,2.687 -10.236,4.606 -3.115,1.92 -5.588,4.435 -7.422,7.55 -1.835,3.112 -2.751,7.016 -2.751,11.707 0,5.118 1.364,9.789 4.095,14.012 2.729,4.223 6.887,7.591 12.476,10.108 5.585,2.515 12.603,3.775 21.048,3.775 5.63,0 11.196,-0.684 16.698,-2.047 5.502,-1.366 10.3,-3.327 14.395,-5.887 L 27.51,69.095 c -4.01,2.303 -8.147,4.031 -12.411,5.182 -4.267,1.152 -8.362,1.728 -12.284,1.728 -4.095,0 -7.379,-0.448 -9.853,-1.344 -2.475,-0.895 -4.286,-2.111 -5.438,-3.646 -1.151,-1.536 -1.727,-3.244 -1.727,-5.119 0,-2.389 0.938,-4.308 2.815,-5.757 1.875,-1.452 4.35,-2.581 7.421,-3.392 3.071,-0.811 6.482,-1.621 10.237,-2.431 3.752,-0.811 7.463,-1.813 11.132,-3.006 3.666,-1.196 7.037,-2.709 10.108,-4.543 3.071,-1.835 5.566,-4.308 7.486,-7.421 1.919,-3.116 2.879,-6.974 2.879,-11.58 0,-5.035 -1.388,-9.641 -4.159,-13.82 C 30.943,9.767 26.742,6.397 21.112,3.838 15.482,1.279 8.445,0 0,0"
       style="fill:#5d904c;fill-opacity:1;fill-rule:nonzero;stroke:none"
       transform="matrix(1.3333333,0,0,-1.3333333,227.51893,746.06893)"
       clip-path="url(#clipPath22)" />
    <path
       id="path23"
       d="m 0,0 c 3.411,0 6.418,0.746 9.021,2.239 2.601,1.491 4.69,3.689 6.27,6.59 1.577,2.899 2.367,6.312 2.367,10.236 0,4.009 -0.79,7.421 -2.367,10.237 -1.58,2.814 -3.669,4.968 -6.27,6.462 -2.603,1.491 -5.566,2.239 -8.893,2.239 -3.327,0 -6.314,-0.748 -8.957,-2.239 -2.645,-1.494 -4.756,-3.648 -6.333,-6.462 -1.58,-2.816 -2.367,-6.228 -2.367,-10.237 0,-3.924 0.787,-7.337 2.367,-10.236 1.577,-2.901 3.688,-5.099 6.333,-6.59 C -6.186,0.746 -3.243,0 0,0 m 0,-16.378 c -7.251,0 -13.713,1.535 -19.385,4.607 -5.674,3.07 -10.13,7.271 -13.371,12.603 -3.243,5.33 -4.862,11.407 -4.862,18.233 0,6.91 1.619,13.03 4.862,18.362 3.241,5.33 7.697,9.511 13.371,12.539 5.672,3.027 12.134,4.543 19.385,4.543 7.335,0 13.861,-1.516 19.577,-4.543 5.714,-3.028 10.193,-7.209 13.435,-12.539 3.241,-5.332 4.863,-11.452 4.863,-18.362 0,-6.91 -1.622,-13.009 -4.863,-18.297 C 29.77,-4.522 25.291,-8.701 19.577,-11.771 13.861,-14.843 7.335,-16.378 0,-16.378"
       style="fill:#5d904c;fill-opacity:1;fill-rule:nonzero;stroke:none"
       transform="matrix(1.3333333,0,0,-1.3333333,338.58013,723.54947)"
       clip-path="url(#clipPath24)" />
    <path
       id="path25"
       d="m 0,0 c 5.458,0 10.342,-1.088 14.651,-3.263 4.306,-2.175 7.697,-5.502 10.172,-9.98 2.473,-4.479 3.711,-10.217 3.711,-17.21 v -39.41 H 8.573 v 36.339 c 0,5.544 -1.216,9.638 -3.647,12.284 -2.431,2.642 -5.865,3.966 -10.3,3.966 -3.157,0 -5.994,-0.684 -8.509,-2.047 -2.517,-1.366 -4.478,-3.371 -5.886,-6.014 -1.407,-2.645 -2.111,-6.142 -2.111,-10.492 v -34.036 h -19.961 v 68.84 h 19.065 v -19.066 l -3.582,5.758 c 2.473,4.606 6.013,8.145 10.62,10.62 C -11.132,-1.238 -5.886,0 0,0"
       style="fill:#5d904c;fill-opacity:1;fill-rule:nonzero;stroke:none"
       transform="matrix(1.3333333,0,0,-1.3333333,462.61067,650.87107)"
       clip-path="url(#clipPath26)" />
    <path
       id="path27"
       d="M 0,0 V 68.84 H 19.065 V 49.263 l -2.687,5.758 c 2.047,4.862 5.33,8.55 9.852,11.068 4.521,2.515 10.023,3.774 16.506,3.774 V 51.31 c -0.767,0.17 -1.515,0.297 -2.239,0.383 -0.726,0.084 -1.43,0.128 -2.111,0.128 -5.63,0 -10.109,-1.579 -13.435,-4.734 -3.327,-3.156 -4.99,-8.019 -4.99,-14.587 l 0,-32.5 z"
       style="fill:#5d904c;fill-opacity:1;fill-rule:nonzero;stroke:none"
       transform="matrix(1.3333333,0,0,-1.3333333,524.71093,744.02213)"
       clip-path="url(#clipPath28)" />
    <path
       id="path29"
       d="m 448.681,278.823 h 19.961 v -68.84 h -19.961 z m 9.98,9.596 c -3.755,0 -6.782,1.066 -9.085,3.199 -2.303,2.131 -3.455,4.777 -3.455,7.934 0,3.154 1.152,5.8 3.455,7.932 2.303,2.132 5.33,3.2 9.085,3.2 3.666,0 6.674,-1.004 9.021,-3.007 2.345,-2.006 3.518,-4.587 3.518,-7.741 0,-3.328 -1.151,-6.079 -3.454,-8.253 -2.304,-2.176 -5.332,-3.264 -9.085,-3.264"
       style="fill:#5d904c;fill-opacity:1;fill-rule:nonzero;stroke:none"
       transform="matrix(1.3333333,0,0,-1.3333333,0,1024)"
       clip-path="url(#clipPath30)" />
    <path
       id="path31"
       d="m 0,0 v 12.155 l 40.562,47.984 3.455,-6.654 H 0.768 V 68.84 H 60.139 V 56.684 L 19.577,8.829 15.866,15.354 H 61.29 V 0 Z"
       style="fill:#5d904c;fill-opacity:1;fill-rule:nonzero;stroke:none"
       transform="matrix(1.3333333,0,0,-1.3333333,643.45053,744.02213)"
       clip-path="url(#clipPath32)" />
    <path
       id="path33"
       d="m 0,0 c -7.85,0 -14.715,1.535 -20.602,4.606 -5.885,3.071 -10.45,7.272 -13.69,12.604 -3.243,5.33 -4.862,11.407 -4.862,18.233 0,6.824 1.555,12.923 4.67,18.297 3.113,5.374 7.463,9.575 13.051,12.604 5.586,3.027 11.878,4.543 18.873,4.543 6.738,0 12.816,-1.452 18.234,-4.351 5.416,-2.901 9.703,-6.995 12.859,-12.284 3.155,-5.29 4.735,-11.644 4.735,-19.064 0,-0.768 -0.044,-1.644 -0.128,-2.624 -0.086,-0.981 -0.172,-1.899 -0.256,-2.751 h -55.916 v 11.644 h 45.424 l -7.806,-3.455 c 0.084,3.583 -0.598,6.696 -2.047,9.341 -1.451,2.643 -3.455,4.713 -6.014,6.206 -2.559,1.491 -5.546,2.239 -8.957,2.239 -3.413,0 -6.42,-0.748 -9.02,-2.239 -2.604,-1.493 -4.629,-3.583 -6.078,-6.27 -1.451,-2.687 -2.175,-5.866 -2.175,-9.533 v -3.07 c 0,-3.839 0.851,-7.166 2.559,-9.981 1.705,-2.815 4.05,-4.97 7.038,-6.462 2.984,-1.493 6.567,-2.239 10.748,-2.239 3.582,0 6.758,0.554 9.532,1.663 2.771,1.108 5.31,2.772 7.613,4.99 L 28.405,11.132 C 25.248,7.549 21.282,4.798 16.506,2.879 11.728,0.959 6.226,0 0,0"
       style="fill:#5d904c;fill-opacity:1;fill-rule:nonzero;stroke:none"
       transform="matrix(1.3333333,0,0,-1.3333333,787.78387,745.38667)"
       clip-path="url(#clipPath34)" />
    <path
       id="path35"
       d="m 0,0 c -2.845,0 -5.462,0.467 -7.851,1.396 -2.389,0.931 -4.47,2.257 -6.244,3.979 -1.774,1.721 -3.153,3.723 -4.136,6.007 -0.984,2.283 -1.476,4.812 -1.476,7.588 0,2.774 0.492,5.303 1.476,7.587 0.983,2.283 2.371,4.285 4.163,6.006 1.791,1.721 3.88,3.047 6.27,3.979 2.388,0.931 5.006,1.396 7.851,1.396 3.02,0 5.778,-0.518 8.272,-1.554 2.494,-1.036 4.602,-2.573 6.323,-4.611 L 10.222,27.61 c -1.37,1.441 -2.881,2.521 -4.531,3.242 -1.652,0.718 -3.425,1.08 -5.322,1.08 -1.932,0 -3.698,-0.317 -5.296,-0.949 -1.598,-0.632 -2.986,-1.528 -4.162,-2.687 -1.178,-1.159 -2.099,-2.529 -2.766,-4.11 -0.668,-1.581 -1.001,-3.32 -1.001,-5.216 0,-1.898 0.333,-3.636 1.001,-5.217 0.667,-1.581 1.588,-2.951 2.766,-4.11 1.176,-1.16 2.564,-2.055 4.162,-2.687 1.598,-0.633 3.364,-0.949 5.296,-0.949 1.897,0 3.67,0.36 5.322,1.081 1.65,0.719 3.161,1.817 4.531,3.293 L 14.648,6.218 C 12.927,4.181 10.819,2.635 8.325,1.581 5.831,0.527 3.056,0 0,0"
       style="fill:#5d904c;fill-opacity:1;fill-rule:nonzero;stroke:none"
       transform="matrix(1.3333333,0,0,-1.3333333,268.36453,825.67307)"
       clip-path="url(#clipPath36)" />
    <path
       id="path37"
       d="m 0,0 c 1.861,0 3.574,0.316 5.137,0.949 1.563,0.632 2.925,1.528 4.084,2.687 1.159,1.159 2.063,2.529 2.714,4.11 0.649,1.581 0.974,3.319 0.974,5.217 0,1.896 -0.316,3.636 -0.948,5.216 -0.632,1.581 -1.537,2.951 -2.714,4.11 C 8.07,23.448 6.7,24.344 5.137,24.977 3.574,25.608 1.861,25.925 0,25.925 c -1.862,0 -3.592,-0.317 -5.19,-0.948 -1.599,-0.633 -2.977,-1.538 -4.137,-2.714 -1.159,-1.178 -2.072,-2.548 -2.739,-4.111 -0.668,-1.563 -1.001,-3.293 -1.001,-5.189 0,-1.862 0.333,-3.583 1.001,-5.164 0.667,-1.581 1.58,-2.96 2.739,-4.137 C -8.167,2.485 -6.789,1.581 -5.19,0.949 -3.592,0.316 -1.862,0 0,0 m 0,-6.007 c -2.845,0 -5.489,0.475 -7.93,1.423 -2.442,0.948 -4.558,2.283 -6.349,4.005 -1.792,1.721 -3.18,3.732 -4.163,6.033 -0.984,2.3 -1.475,4.803 -1.475,7.509 0,2.739 0.491,5.26 1.475,7.56 0.983,2.301 2.371,4.303 4.163,6.007 1.791,1.704 3.899,3.031 6.322,3.979 2.424,0.948 5.076,1.423 7.957,1.423 2.845,0 5.48,-0.466 7.904,-1.397 2.424,-0.931 4.522,-2.248 6.296,-3.952 1.774,-1.704 3.153,-3.715 4.136,-6.033 0.983,-2.319 1.476,-4.848 1.476,-7.587 0,-2.74 -0.493,-5.262 -1.476,-7.562 C 17.353,3.101 15.974,1.089 14.2,-0.632 12.426,-2.354 10.328,-3.68 7.904,-4.61 5.48,-5.54 2.845,-6.007 0,-6.007"
       style="fill:#5d904c;fill-opacity:1;fill-rule:nonzero;stroke:none"
       transform="matrix(1.3333333,0,0,-1.3333333,319.72067,817.664)"
       clip-path="url(#clipPath38)" />
    <path
       id="path39"
       d="M 0,0 V 36.884 H 5.638 L 28.77,8.431 h -2.793 v 28.453 h 6.744 V 0 H 27.083 L 4.004,28.453 H 6.797 L 6.797,0 Z"
       style="fill:#5d904c;fill-opacity:1;fill-rule:nonzero;stroke:none"
       transform="matrix(1.3333333,0,0,-1.3333333,355.83133,824.97)"
       clip-path="url(#clipPath40)" />
    <path
       id="path41"
       d="m 0,0 c -2.881,0 -5.63,0.414 -8.247,1.238 -2.617,0.825 -4.715,1.889 -6.296,3.189 l 2.371,5.321 c 1.475,-1.159 3.301,-2.125 5.48,-2.897 2.178,-0.774 4.408,-1.16 6.692,-1.16 1.931,0 3.495,0.211 4.689,0.632 1.194,0.422 2.073,0.992 2.635,1.713 0.561,0.72 0.843,1.536 0.843,2.45 0,1.123 -0.404,2.029 -1.212,2.713 -0.809,0.686 -1.853,1.23 -3.135,1.634 -1.283,0.403 -2.705,0.772 -4.268,1.106 -1.564,0.334 -3.127,0.747 -4.69,1.239 -1.563,0.491 -2.995,1.115 -4.294,1.871 -1.3,0.755 -2.345,1.764 -3.135,3.029 -0.79,1.265 -1.185,2.88 -1.185,4.848 0,2.002 0.535,3.837 1.606,5.506 1.072,1.668 2.705,3.004 4.901,4.005 2.195,1.001 4.979,1.501 8.351,1.501 2.213,0 4.408,-0.282 6.587,-0.843 2.178,-0.562 4.074,-1.369 5.69,-2.424 l -2.16,-5.321 c -1.652,0.983 -3.355,1.712 -5.111,2.186 -1.757,0.475 -3.443,0.711 -5.058,0.711 -1.863,0 -3.391,-0.228 -4.584,-0.685 -1.195,-0.457 -2.065,-1.062 -2.609,-1.817 -0.545,-0.756 -0.817,-1.59 -0.817,-2.503 0,-1.125 0.396,-2.029 1.186,-2.714 0.791,-0.684 1.826,-1.22 3.109,-1.607 1.282,-0.387 2.714,-0.756 4.294,-1.107 1.581,-0.351 3.144,-0.763 4.69,-1.238 1.545,-0.473 2.968,-1.089 4.268,-1.844 1.299,-0.755 2.345,-1.756 3.135,-3.003 0.79,-1.248 1.186,-2.837 1.186,-4.769 0,-1.968 -0.537,-3.785 -1.608,-5.453 C 12.232,3.838 10.591,2.503 8.378,1.502 6.165,0.501 3.372,0 0,0"
       style="fill:#5d904c;fill-opacity:1;fill-rule:nonzero;stroke:none"
       transform="matrix(1.3333333,0,0,-1.3333333,427.98373,825.67307)"
       clip-path="url(#clipPath42)" />
    <path
       id="path43"
       d="m 0,0 c -5.023,0 -8.966,1.423 -11.829,4.269 -2.863,2.844 -4.295,6.972 -4.295,12.382 v 20.76 h 6.851 v -20.55 c 0,-3.793 0.816,-6.551 2.45,-8.272 1.633,-1.722 3.943,-2.582 6.928,-2.582 2.986,0 5.287,0.86 6.903,2.582 1.616,1.721 2.424,4.479 2.424,8.272 v 20.55 h 6.744 v -20.76 c 0,-5.41 -1.431,-9.538 -4.294,-12.382 C 9.019,1.423 5.059,0 0,0"
       style="fill:#5d904c;fill-opacity:1;fill-rule:nonzero;stroke:none"
       transform="matrix(1.3333333,0,0,-1.3333333,478.00453,825.67307)"
       clip-path="url(#clipPath44)" />
    <path
       id="path45"
       d="M 0,0 V 36.884 H 6.85 V 5.796 h 19.285 l 0,-5.796 z"
       style="fill:#5d904c;fill-opacity:1;fill-rule:nonzero;stroke:none"
       transform="matrix(1.3333333,0,0,-1.3333333,512.35933,824.97)"
       clip-path="url(#clipPath46)" />
    <path
       id="path47"
       d="m 0,0 v 31.088 h -12.225 v 5.796 H 19.074 V 31.088 H 6.85 L 6.85,0 Z"
       style="fill:#5d904c;fill-opacity:1;fill-rule:nonzero;stroke:none"
       transform="matrix(1.3333333,0,0,-1.3333333,564.418,824.97)"
       clip-path="url(#clipPath48)" />
    <path
       id="path49"
       d="M 0,0 1.896,5.374 H 21.762 L 23.605,0 Z M -7.641,-8.536 8.957,28.348 h 6.745 L 32.353,-8.536 H 25.134 L 10.907,24.712 h 2.739 L -0.633,-8.536 Z"
       style="fill:#5d904c;fill-opacity:1;fill-rule:nonzero;stroke:none"
       transform="matrix(1.3333333,0,0,-1.3333333,599.96613,813.58853)"
       clip-path="url(#clipPath50)" />
    <path
       id="path51"
       d="M 0,0 V 36.884 H 5.638 L 28.77,8.431 h -2.793 v 28.453 h 6.745 V 0 H 27.083 L 4.005,28.453 H 6.797 L 6.797,0 Z"
       style="fill:#5d904c;fill-opacity:1;fill-rule:nonzero;stroke:none"
       transform="matrix(1.3333333,0,0,-1.3333333,649.35547,824.97)"
       clip-path="url(#clipPath52)" />
    <path
       id="path53"
       d="m 0,0 c -2.846,0 -5.463,0.467 -7.852,1.396 -2.388,0.931 -4.47,2.257 -6.244,3.979 -1.773,1.721 -3.153,3.723 -4.135,6.007 -0.985,2.283 -1.476,4.812 -1.476,7.588 0,2.774 0.491,5.303 1.476,7.587 0.982,2.283 2.371,4.285 4.162,6.006 1.792,1.721 3.881,3.047 6.27,3.979 2.389,0.931 5.006,1.396 7.852,1.396 3.02,0 5.777,-0.518 8.272,-1.554 2.493,-1.036 4.602,-2.573 6.322,-4.611 L 10.222,27.61 c -1.37,1.441 -2.881,2.521 -4.532,3.242 -1.651,0.718 -3.424,1.08 -5.322,1.08 -1.931,0 -3.697,-0.317 -5.295,-0.949 -1.599,-0.632 -2.986,-1.528 -4.163,-2.687 -1.177,-1.159 -2.099,-2.529 -2.765,-4.11 -0.668,-1.581 -1.002,-3.32 -1.002,-5.216 0,-1.898 0.334,-3.636 1.002,-5.217 0.666,-1.581 1.588,-2.951 2.765,-4.11 1.177,-1.16 2.564,-2.055 4.163,-2.687 1.598,-0.633 3.364,-0.949 5.295,-0.949 1.898,0 3.671,0.36 5.322,1.081 1.651,0.719 3.162,1.817 4.532,3.293 L 14.647,6.218 C 12.927,4.181 10.818,2.635 8.325,1.581 5.83,0.527 3.056,0 0,0"
       style="fill:#5d904c;fill-opacity:1;fill-rule:nonzero;stroke:none"
       transform="matrix(1.3333333,0,0,-1.3333333,729.0248,825.67307)"
       clip-path="url(#clipPath54)" />
    <path
       id="path55"
       d="M 0,0 V 14.596 L 1.581,10.433 -14.49,36.884 h 7.271 L 5.743,15.544 H 1.634 l 12.909,21.34 h 6.744 L 5.27,10.433 6.798,14.596 V 0 Z"
       style="fill:#5d904c;fill-opacity:1;fill-rule:nonzero;stroke:none"
       transform="matrix(1.3333333,0,0,-1.3333333,769.41933,824.97)"
       clip-path="url(#clipPath56)" />
  </g>
</svg>
